<svg xmlns="http://www.w3.org/2000/svg" viewBox="48 116 50 50">
  <path fill="#0051FD" d="M70.13,133.36c-1.74-1.89-3.45-3.81-5.16-5.73-2.52.01-5.03-.08-7.55,0,4.35,4.51,8.61,9.11,12.77,13.81-2.69,2.94-5.3,5.94-8.06,8.82-1.52,1.7-3.15,3.28-4.65,5,1.39.02,2.79,0,4.18-.01,1.08-.01,2.2.1,3.27-.05.47-.24.83-.78,1.19-1.17,3.7-4.2,7.44-8.39,11.11-12.61-2.37-2.67-4.77-5.32-7.1-8.04Z"/>
  <path fill="#0051FD" d="M77.51,137.02c1.34,1.5,2.79,2.9,4.11,4.42-4.32,4.57-8.63,9.17-12.94,13.75,3.08.07,6.16.02,9.24.03,1.32-1.25,2.51-2.63,3.88-3.83,3.38-3.26,6.68-6.61,10.02-9.92-4.21-4.1-8.34-8.28-12.51-12.42-.48-.46-.92-1.03-1.5-1.37-.59-.09-1.21-.06-1.81-.06-2.44.04-4.88-.04-7.32.03.16.18.33.36.49.53,2.79,2.93,5.53,5.92,8.33,8.84Z"/>
</svg>
